<svg width="40" height="40" viewBox="0 0 40 40" fill="none" xmlns="http://www.w3.org/2000/svg">
<rect width="40" height="40" rx="8" fill="#0F172A"/>
<path d="M8 25.5C10.6 19.1 14.5 15.8 19.6 15.8C24.8 15.8 28.8 19.1 32 25.5C28.8 31.9 24.8 35.2 19.6 35.2C14.5 35.2 10.6 31.9 8 25.5Z" fill="#38BDF8"/>
<circle cx="20" cy="25.5" r="5.6" fill="#F8FAFC"/>
<circle cx="20" cy="25.5" r="2.7" fill="#0F172A"/>
<path d="M13.2 8.2H26.8C28.5 8.2 29.8 9.5 29.8 11.2V16.8C27.2 14.7 23.8 13.6 19.8 13.6C15.9 13.6 12.6 14.7 10.2 16.8V11.2C10.2 9.5 11.5 8.2 13.2 8.2Z" fill="#22C55E"/>
<path d="M15.2 12.6H24.8" stroke="#ECFEFF" stroke-width="2" stroke-linecap="round"/>
</svg>
